<?xml version="1.0" encoding="UTF-8"?>
<svg version="1.1" xmlns="http://www.w3.org/2000/svg" width="120" height="120">
<path d="M0 0 C6.18416527 3.30132131 8.79973577 8.22447154 11.875 14.375 C15.54652427 16.82268284 17.56260933 16.6342857 21.9375 16.75 C31.34489638 17.18918539 39.21006505 19.40711346 45.875 26.375 C53.1972585 36.72473076 54.16937708 44.94393372 54.0703125 57.40234375 C54.06657681 58.75997203 54.06373247 60.11760303 54.06173706 61.47523499 C54.05414431 65.02787882 54.03453397 68.58035603 54.0123291 72.13293457 C53.99177613 75.7663345 53.98271524 79.39976167 53.97265625 83.03320312 C53.95128339 90.14720309 53.91720087 97.2610906 53.875 104.375 C50.905 104.375 47.935 104.375 44.875 104.375 C44.875 99.425 44.875 94.475 44.875 89.375 C20.455 89.375 -3.965 89.375 -29.125 89.375 C-29.125 94.325 -29.125 99.275 -29.125 104.375 C-31.765 104.375 -34.405 104.375 -37.125 104.375 C-37.24101952 92.77873097 -37.32977937 81.18260078 -37.38406086 69.58586884 C-37.41011774 64.20059154 -37.44544473 58.8157123 -37.50219727 53.43066406 C-37.55665591 48.23053594 -37.58644993 43.03078991 -37.59938622 37.83039856 C-37.6086012 35.84969572 -37.62659614 33.86901301 -37.65365028 31.88847351 C-37.69012487 29.10683549 -37.69493769 26.32676183 -37.69262695 23.54492188 C-37.71060333 22.73211761 -37.72857971 21.91931335 -37.74710083 21.08187866 C-37.68450059 14.0846853 -34.93310946 9.45678114 -30.28125 4.3515625 C-29.7346875 3.90554687 -29.188125 3.45953125 -28.625 3 C-28.0784375 2.53851562 -27.531875 2.07703125 -26.96875 1.6015625 C-19.52451712 -3.35074496 -8.17461193 -3.30287351 0 0 Z " fill="#D8D9D9" transform="translate(50.125,8.625)"/>
<path d="M0 0 C4.95 0 9.9 0 15 0 C15 3.96 15 7.92 15 12 C17.64 12 20.28 12 23 12 C23 8.37 23 4.74 23 1 C27.62 1 32.24 1 37 1 C37 4.63 37 8.26 37 12 C39.64 12 42.28 12 45 12 C45 8.04 45 4.08 45 0 C49.95 0 54.9 0 60 0 C60 3.96 60 7.92 60 12 C62.64 12 65.28 12 68 12 C68 8.37 68 4.74 68 1 C72.62 1 77.24 1 82 1 C82 4.63 82 8.26 82 12 C83.65 12 85.3 12 87 12 C87 23.88 87 35.76 87 48 C84.03 48 81.06 48 78 48 C78 43.05 78 38.1 78 33 C53.58 33 29.16 33 4 33 C4 37.95 4 42.9 4 48 C1.36 48 -1.28 48 -4 48 C-4 36.12 -4 24.24 -4 12 C-2.68 12 -1.36 12 0 12 C0 8.04 0 4.08 0 0 Z " fill="#EAEAEA" transform="translate(17,65)"/>
<path d="M0 0 C30.03 0 60.06 0 91 0 C91 7.59 91 15.18 91 23 C88.03 23 85.06 23 82 23 C82 18.05 82 13.1 82 8 C57.58 8 33.16 8 8 8 C8 12.95 8 17.9 8 23 C5.36 23 2.72 23 0 23 C0 15.41 0 7.82 0 0 Z " fill="#BABABA" transform="translate(13,90)"/>
<path d="M0 0 C30.03 0 60.06 0 91 0 C91 4.95 91 9.9 91 15 C89.35 15 87.7 15 86 15 C86 11.37 86 7.74 86 4 C81.38 4 76.76 4 72 4 C72 7.63 72 11.26 72 15 C69.36 15 66.72 15 64 15 C64 11.04 64 7.08 64 3 C59.05 3 54.1 3 49 3 C49 6.96 49 10.92 49 15 C46.36 15 43.72 15 41 15 C41 11.37 41 7.74 41 4 C36.38 4 31.76 4 27 4 C27 7.63 27 11.26 27 15 C24.36 15 21.72 15 19 15 C19 11.04 19 7.08 19 3 C14.05 3 9.1 3 4 3 C4 6.96 4 10.92 4 15 C2.68 15 1.36 15 0 15 C0 10.05 0 5.1 0 0 Z " fill="#B8B8B9" transform="translate(13,62)"/>
<path d="M0 0 C30.03 0 60.06 0 91 0 C91 1.32 91 2.64 91 4 C60.97 4 30.94 4 0 4 C0 2.68 0 1.36 0 0 Z " fill="#CCCCCC" transform="translate(13,58)"/>
<path d="M0 0 C4.95 0 9.9 0 15 0 C15 3.96 15 7.92 15 12 C16.32 12 17.64 12 19 12 C19 16.29 19 20.58 19 25 C15.04 25 11.08 25 7 25 C7 17.08 7 9.16 7 1 C4.69 1 2.38 1 0 1 C0 0.67 0 0.34 0 0 Z " fill="#E9E9E9" transform="translate(62,65)"/>
<path d="M0 0 C2.31 0 4.62 0 7 0 C7 7.92 7 15.84 7 24 C3.37 24 -0.26 24 -4 24 C-4 19.71 -4 15.42 -4 11 C-2.68 11 -1.36 11 0 11 C0 7.37 0 3.74 0 0 Z " fill="#F9F9F9" transform="translate(85,66)"/>
<path d="M0 0 C2.31 0 4.62 0 7 0 C7 7.92 7 15.84 7 24 C3.37 24 -0.26 24 -4 24 C-4 19.71 -4 15.42 -4 11 C-2.68 11 -1.36 11 0 11 C0 7.37 0 3.74 0 0 Z " fill="#F9F9F9" transform="translate(62,66)"/>
<path d="M0 0 C2.31 0 4.62 0 7 0 C7 3.63 7 7.26 7 11 C8.32 11 9.64 11 11 11 C11 15.29 11 19.58 11 24 C7.37 24 3.74 24 0 24 C0 16.08 0 8.16 0 0 Z " fill="#EBEBEB" transform="translate(47,66)"/>
<path d="M0 0 C2.31 0 4.62 0 7 0 C7 7.92 7 15.84 7 24 C3.37 24 -0.26 24 -4 24 C-4 19.71 -4 15.42 -4 11 C-2.68 11 -1.36 11 0 11 C0 7.37 0 3.74 0 0 Z " fill="#F9F9F9" transform="translate(40,66)"/>
<path d="M0 0 C2.31 0 4.62 0 7 0 C7 7.92 7 15.84 7 24 C3.37 24 -0.26 24 -4 24 C-4 19.71 -4 15.42 -4 11 C-2.68 11 -1.36 11 0 11 C0 7.37 0 3.74 0 0 Z " fill="#F9F9F9" transform="translate(17,66)"/>
<path d="M0 0 C1.67669157 0.22705198 3.34325741 0.53141418 5 0.875 C5.9075 1.05804688 6.815 1.24109375 7.75 1.4296875 C10 2 10 2 11 3 C11.17781263 4.95302402 11.26783421 6.91440695 11.3125 8.875 C11.34988281 9.94492188 11.38726562 11.01484375 11.42578125 12.1171875 C11 15 11 15 9.15234375 16.90234375 C6.37416534 18.31916432 4.92261351 17.8930208 2 17 C2 16.34 2 15.68 2 15 C-0.31 15.33 -2.62 15.66 -5 16 C-4.625 13.5625 -4.625 13.5625 -4 11 C-3.34 10.67 -2.68 10.34 -2 10 C-1.5709742 7.90658482 -1.5709742 7.90658482 -1.4375 5.5 C-1.09605489 1.09605489 -1.09605489 1.09605489 0 0 Z M3 6 C3 8.64 3 11.28 3 14 C3.99 13.67 4.98 13.34 6 13 C6 10.69 6 8.38 6 6 C5.01 6 4.02 6 3 6 Z " fill="#B5E7EB" transform="translate(74,3)"/>
<path d="M0 0 C2.97 0 5.94 0 9 0 C9 4.95 9 9.9 9 15 C6.03 15 3.06 15 0 15 C0 10.05 0 5.1 0 0 Z " fill="#7A7F84" transform="translate(95,98)"/>
<path d="M0 0 C2.64 0 5.28 0 8 0 C8 4.95 8 9.9 8 15 C5.36 15 2.72 15 0 15 C0 10.05 0 5.1 0 0 Z " fill="#787D82" transform="translate(13,98)"/>
<path d="M0 0 C4.09789669 0.37943488 6.53958935 0.69305957 10 3 C9.67 4.32 9.34 5.64 9 7 C7.35 6.67 5.7 6.34 4 6 C4 8.64 4 11.28 4 14 C0.91190305 15.76462683 -0.23312136 16 -4 16 C-3.67 14.35 -3.34 12.7 -3 11 C-2.34 11 -1.68 11 -1 11 C-1.01160156 10.28972656 -1.02320312 9.57945313 -1.03515625 8.84765625 C-1.04869141 7.46900391 -1.04869141 7.46900391 -1.0625 6.0625 C-1.07410156 5.14597656 -1.08570312 4.22945312 -1.09765625 3.28515625 C-1 1 -1 1 0 0 Z " fill="#FAE5A3" transform="translate(105,20)"/>
<path d="M0 0 C2.31 0 4.62 0 7 0 C7 3.63 7 7.26 7 11 C4.69 11 2.38 11 0 11 C0 7.37 0 3.74 0 0 Z " fill="#797E83" transform="translate(55,66)"/>
<path d="M0 0 C2.31 0 4.62 0 7 0 C7 3.63 7 7.26 7 11 C4.69 11 2.38 11 0 11 C0 7.37 0 3.74 0 0 Z " fill="#777C81" transform="translate(77,66)"/>
<path d="M0 0 C2.31 0 4.62 0 7 0 C7 3.63 7 7.26 7 11 C4.69 11 2.38 11 0 11 C0 7.37 0 3.74 0 0 Z " fill="#777C81" transform="translate(32,66)"/>
<path d="M0 0 C0.66 0 1.32 0 2 0 C4.25552839 4.51105678 4.40564287 8.05115699 4 13 C0.77208445 15.1519437 -0.28400809 15.20086443 -4 15 C-3.625 12.5625 -3.625 12.5625 -3 10 C-2.34 9.67 -1.68 9.34 -1 9 C-0.53348793 6.87423218 -0.53348793 6.87423218 -0.375 4.4375 C-0.30023438 3.61121094 -0.22546875 2.78492188 -0.1484375 1.93359375 C-0.09945312 1.29550781 -0.05046875 0.65742187 0 0 Z " fill="#B6E6EA" transform="translate(73,4)"/>
<path d="M0 0 C2.97 0 5.94 0 9 0 C9 2.31 9 4.62 9 7 C6.03 7 3.06 7 0 7 C0 4.69 0 2.38 0 0 Z " fill="#626569" transform="translate(95,98)"/>
<path d="M0 0 C0.556875 0.144375 1.11375 0.28875 1.6875 0.4375 C2.8321875 0.7159375 2.8321875 0.7159375 4 1 C5.299375 1.3403125 5.299375 1.3403125 6.625 1.6875 C7.40875 1.790625 8.1925 1.89375 9 2 C9.66 1.34 10.32 0.68 11 0 C11.99 0 12.98 0 14 0 C14 1.32 14 2.64 14 4 C11.14373531 6.43622576 9.64473959 7.03868438 5.875 6.8125 C3 6 3 6 0 4 C0 2.68 0 1.36 0 0 Z " fill="#74BCC7" transform="translate(53,43)"/>
<path d="M0 0 C2.64 0 5.28 0 8 0 C8 2.31 8 4.62 8 7 C5.36 7 2.72 7 0 7 C0 4.69 0 2.38 0 0 Z " fill="#62666A" transform="translate(13,98)"/>
<path d="M0 0 C0.33 0 0.66 0 1 0 C1.08082094 1.95766281 1.13910778 3.91626728 1.1875 5.875 C1.22230469 6.96554688 1.25710937 8.05609375 1.29296875 9.1796875 C1.19628906 10.11039063 1.09960938 11.04109375 1 12 C-2 14 -2 14 -4.6875 13.625 C-5.450625 13.41875 -6.21375 13.2125 -7 13 C-5.25 9.125 -5.25 9.125 -3 8 C-2.65977214 6.00116131 -2.32670903 4.00109278 -2 2 C-1.34 1.34 -0.68 0.68 0 0 Z " fill="#BAEDF1" transform="translate(83,7)"/>
<path d="M0 0 C1.32 0 2.64 0 4 0 C4 3.63 4 7.26 4 11 C2.68 11 1.36 11 0 11 C0 7.37 0 3.74 0 0 Z " fill="#7D8287" transform="translate(13,66)"/>
<path d="M0 0 C1.32 0 2.64 0 4 0 C4 3.63 4 7.26 4 11 C2.68 11 1.36 11 0 11 C0 7.37 0 3.74 0 0 Z " fill="#767C81" transform="translate(100,66)"/>
<path d="M0 0 C0.33 0 0.66 0 1 0 C1.33 3.96 1.66 7.92 2 12 C0.02 12.66 -1.96 13.32 -4 14 C-3.625 12.0625 -3.625 12.0625 -3 10 C-2.34 9.67 -1.68 9.34 -1 9 C-0.53348793 6.87423218 -0.53348793 6.87423218 -0.375 4.4375 C-0.30023438 3.61121094 -0.22546875 2.78492188 -0.1484375 1.93359375 C-0.09945312 1.29550781 -0.05046875 0.65742187 0 0 Z " fill="#ABD8DC" transform="translate(73,4)"/>
<path d="M0 0 C0.99 0.33 1.98 0.66 3 1 C0 4 -3 7 -6 10 C-5.58578031 5.16743695 -3.53586014 3.17320782 0 0 Z " fill="#E0E0E0" transform="translate(22,11)"/>
<path d="M0 0 C0.66 0 1.32 0 2 0 C2 2.64 2 5.28 2 8 C-0.31 7.67 -2.62 7.34 -5 7 C-5 6.67 -5 6.34 -5 6 C-3.35 6 -1.7 6 0 6 C0 4.02 0 2.04 0 0 Z " fill="#7E8389" transform="translate(19,105)"/>
</svg>
